<svg xmlns="http://www.w3.org/2000/svg" viewBox="0 0 1100 500">
  <rect width="1100" height="500" fill="white"/>
  <style>
    .key { fill: #f5f5f5; stroke: #333; stroke-width: 2; rx: 8; }
    .key-text { font-family: Arial, sans-serif; font-size: 12px; fill: #333; text-anchor: middle; }
    .key-text-small { font-family: Arial, sans-serif; font-size: 9px; fill: #666; text-anchor: middle; }
    .key-text-code { font-family: monospace; font-size: 8px; fill: #0066cc; text-anchor: middle; }
    .title { font-family: Arial, sans-serif; font-size: 20px; fill: #333; font-weight: bold; }
    .special { fill: #e3f2fd; }
    .thumb { fill: #fff3e0; }
  </style>
  
  <text x="550" y="30" class="title" text-anchor="middle">Layer 0 - Default Layer</text>
  
  <!-- LEFT HALF - Row 1 -->
  <g transform="translate(50, 50)">
    <rect class="key" x="0" y="0" width="55" height="55"/>
    <text class="key-text" x="27" y="25">ESC</text>
    <text class="key-text-code" x="27" y="45">&amp;kp ESC</text>
  </g>
  <g transform="translate(110, 50)">
    <rect class="key" x="0" y="0" width="55" height="55"/>
    <text class="key-text" x="27" y="20">1</text>
    <text class="key-text-small" x="27" y="35">!</text>
    <text class="key-text-code" x="27" y="48">&amp;kp N1</text>
  </g>
  <g transform="translate(170, 50)">
    <rect class="key" x="0" y="0" width="55" height="55"/>
    <text class="key-text" x="27" y="20">2</text>
    <text class="key-text-small" x="27" y="35">@</text>
    <text class="key-text-code" x="27" y="48">&amp;kp N2</text>
  </g>
  <g transform="translate(230, 50)">
    <rect class="key" x="0" y="0" width="55" height="55"/>
    <text class="key-text" x="27" y="20">3</text>
    <text class="key-text-small" x="27" y="35">#</text>
    <text class="key-text-code" x="27" y="48">&amp;kp N3</text>
  </g>
  <g transform="translate(290, 50)">
    <rect class="key" x="0" y="0" width="55" height="55"/>
    <text class="key-text" x="27" y="20">4</text>
    <text class="key-text-small" x="27" y="35">$</text>
    <text class="key-text-code" x="27" y="48">&amp;kp N4</text>
  </g>
  <g transform="translate(350, 50)">
    <rect class="key" x="0" y="0" width="55" height="55"/>
    <text class="key-text" x="27" y="20">5</text>
    <text class="key-text-small" x="27" y="35">%</text>
    <text class="key-text-code" x="27" y="48">&amp;kp N5</text>
  </g>

  <!-- RIGHT HALF - Row 1 -->
  <g transform="translate(630, 50)">
    <rect class="key" x="0" y="0" width="55" height="55"/>
    <text class="key-text" x="27" y="20">6</text>
    <text class="key-text-small" x="27" y="35">^</text>
    <text class="key-text-code" x="27" y="48">&amp;kp N6</text>
  </g>
  <g transform="translate(690, 50)">
    <rect class="key" x="0" y="0" width="55" height="55"/>
    <text class="key-text" x="27" y="20">7</text>
    <text class="key-text-small" x="27" y="35">&amp;</text>
    <text class="key-text-code" x="27" y="48">&amp;kp N7</text>
  </g>
  <g transform="translate(750, 50)">
    <rect class="key" x="0" y="0" width="55" height="55"/>
    <text class="key-text" x="27" y="20">8</text>
    <text class="key-text-small" x="27" y="35">*</text>
    <text class="key-text-code" x="27" y="48">&amp;kp N8</text>
  </g>
  <g transform="translate(810, 50)">
    <rect class="key" x="0" y="0" width="55" height="55"/>
    <text class="key-text" x="27" y="20">9</text>
    <text class="key-text-small" x="27" y="35">(</text>
    <text class="key-text-code" x="27" y="48">&amp;kp N9</text>
  </g>
  <g transform="translate(870, 50)">
    <rect class="key" x="0" y="0" width="55" height="55"/>
    <text class="key-text" x="27" y="20">0</text>
    <text class="key-text-small" x="27" y="35">)</text>
    <text class="key-text-code" x="27" y="48">&amp;kp N0</text>
  </g>
  <g transform="translate(930, 50)">
    <rect class="key" x="0" y="0" width="55" height="55"/>
    <text class="key-text" x="27" y="25">BKSP</text>
    <text class="key-text-code" x="27" y="45">&amp;kp BKSP</text>
  </g>

  <!-- LEFT HALF - Row 2 -->
  <g transform="translate(50, 110)">
    <rect class="key" x="0" y="0" width="55" height="55"/>
    <text class="key-text" x="27" y="25">TAB</text>
    <text class="key-text-code" x="27" y="45">&amp;kp TAB</text>
  </g>
  <g transform="translate(110, 110)">
    <rect class="key" x="0" y="0" width="55" height="55"/>
    <text class="key-text" x="27" y="25">Q</text>
    <text class="key-text-code" x="27" y="45">&amp;kp Q</text>
  </g>
  <g transform="translate(170, 110)">
    <rect class="key" x="0" y="0" width="55" height="55"/>
    <text class="key-text" x="27" y="25">W</text>
    <text class="key-text-code" x="27" y="45">&amp;kp W</text>
  </g>
  <g transform="translate(230, 110)">
    <rect class="key" x="0" y="0" width="55" height="55"/>
    <text class="key-text" x="27" y="25">E</text>
    <text class="key-text-code" x="27" y="45">&amp;kp E</text>
  </g>
  <g transform="translate(290, 110)">
    <rect class="key" x="0" y="0" width="55" height="55"/>
    <text class="key-text" x="27" y="25">R</text>
    <text class="key-text-code" x="27" y="45">&amp;kp R</text>
  </g>
  <g transform="translate(350, 110)">
    <rect class="key" x="0" y="0" width="55" height="55"/>
    <text class="key-text" x="27" y="25">T</text>
    <text class="key-text-code" x="27" y="45">&amp;kp T</text>
  </g>

  <!-- RIGHT HALF - Row 2 -->
  <g transform="translate(630, 110)">
    <rect class="key" x="0" y="0" width="55" height="55"/>
    <text class="key-text" x="27" y="25">Y</text>
    <text class="key-text-code" x="27" y="45">&amp;kp Y</text>
  </g>
  <g transform="translate(690, 110)">
    <rect class="key" x="0" y="0" width="55" height="55"/>
    <text class="key-text" x="27" y="25">U</text>
    <text class="key-text-code" x="27" y="45">&amp;kp U</text>
  </g>
  <g transform="translate(750, 110)">
    <rect class="key" x="0" y="0" width="55" height="55"/>
    <text class="key-text" x="27" y="25">I</text>
    <text class="key-text-code" x="27" y="45">&amp;kp I</text>
  </g>
  <g transform="translate(810, 110)">
    <rect class="key" x="0" y="0" width="55" height="55"/>
    <text class="key-text" x="27" y="25">O</text>
    <text class="key-text-code" x="27" y="45">&amp;kp O</text>
  </g>
  <g transform="translate(870, 110)">
    <rect class="key" x="0" y="0" width="55" height="55"/>
    <text class="key-text" x="27" y="25">P</text>
    <text class="key-text-code" x="27" y="45">&amp;kp P</text>
  </g>
  <g transform="translate(930, 110)">
    <rect class="key" x="0" y="0" width="55" height="55"/>
    <text class="key-text" x="27" y="20">\</text>
    <text class="key-text-small" x="27" y="35">|</text>
    <text class="key-text-code" x="27" y="48">&amp;kp BSLH</text>
  </g>

  <!-- LEFT HALF - Row 3 -->
  <g transform="translate(50, 170)">
    <rect class="key special" x="0" y="0" width="55" height="55"/>
    <text class="key-text" x="27" y="25">SHIFT</text>
    <text class="key-text-code" x="27" y="45">&amp;kp LSHFT</text>
  </g>
  <g transform="translate(110, 170)">
    <rect class="key" x="0" y="0" width="55" height="55"/>
    <text class="key-text" x="27" y="25">A</text>
    <text class="key-text-code" x="27" y="45">&amp;kp A</text>
  </g>
  <g transform="translate(170, 170)">
    <rect class="key" x="0" y="0" width="55" height="55"/>
    <text class="key-text" x="27" y="25">S</text>
    <text class="key-text-code" x="27" y="45">&amp;kp S</text>
  </g>
  <g transform="translate(230, 170)">
    <rect class="key" x="0" y="0" width="55" height="55"/>
    <text class="key-text" x="27" y="25">D</text>
    <text class="key-text-code" x="27" y="45">&amp;kp D</text>
  </g>
  <g transform="translate(290, 170)">
    <rect class="key" x="0" y="0" width="55" height="55"/>
    <text class="key-text" x="27" y="25">F</text>
    <text class="key-text-code" x="27" y="45">&amp;kp F</text>
  </g>
  <g transform="translate(350, 170)">
    <rect class="key" x="0" y="0" width="55" height="55"/>
    <text class="key-text" x="27" y="25">G</text>
    <text class="key-text-code" x="27" y="45">&amp;kp G</text>
  </g>

  <!-- RIGHT HALF - Row 3 -->
  <g transform="translate(630, 170)">
    <rect class="key" x="0" y="0" width="55" height="55"/>
    <text class="key-text" x="27" y="25">H</text>
    <text class="key-text-code" x="27" y="45">&amp;kp H</text>
  </g>
  <g transform="translate(690, 170)">
    <rect class="key" x="0" y="0" width="55" height="55"/>
    <text class="key-text" x="27" y="25">J</text>
    <text class="key-text-code" x="27" y="45">&amp;kp J</text>
  </g>
  <g transform="translate(750, 170)">
    <rect class="key" x="0" y="0" width="55" height="55"/>
    <text class="key-text" x="27" y="25">K</text>
    <text class="key-text-code" x="27" y="45">&amp;kp K</text>
  </g>
  <g transform="translate(810, 170)">
    <rect class="key" x="0" y="0" width="55" height="55"/>
    <text class="key-text" x="27" y="25">L</text>
    <text class="key-text-code" x="27" y="45">&amp;kp L</text>
  </g>
  <g transform="translate(870, 170)">
    <rect class="key" x="0" y="0" width="55" height="55"/>
    <text class="key-text" x="27" y="20">;</text>
    <text class="key-text-small" x="27" y="35">:</text>
    <text class="key-text-code" x="27" y="48">&amp;kp SEMI</text>
  </g>
  <g transform="translate(930, 170)">
    <rect class="key" x="0" y="0" width="55" height="55"/>
    <text class="key-text" x="27" y="20">'</text>
    <text class="key-text-small" x="27" y="35">"</text>
    <text class="key-text-code" x="27" y="48">&amp;kp SQT</text>
  </g>

  <!-- LEFT HALF - Row 4 -->
  <g transform="translate(50, 230)">
    <rect class="key special" x="0" y="0" width="55" height="55"/>
    <text class="key-text" x="27" y="25">CTRL</text>
    <text class="key-text-code" x="27" y="45">&amp;kp LCTRL</text>
  </g>
  <g transform="translate(110, 230)">
    <rect class="key" x="0" y="0" width="55" height="55"/>
    <text class="key-text" x="27" y="25">Z</text>
    <text class="key-text-code" x="27" y="45">&amp;kp Z</text>
  </g>
  <g transform="translate(170, 230)">
    <rect class="key" x="0" y="0" width="55" height="55"/>
    <text class="key-text" x="27" y="25">X</text>
    <text class="key-text-code" x="27" y="45">&amp;kp X</text>
  </g>
  <g transform="translate(230, 230)">
    <rect class="key" x="0" y="0" width="55" height="55"/>
    <text class="key-text" x="27" y="25">C</text>
    <text class="key-text-code" x="27" y="45">&amp;kp C</text>
  </g>
  <g transform="translate(290, 230)">
    <rect class="key" x="0" y="0" width="55" height="55"/>
    <text class="key-text" x="27" y="25">V</text>
    <text class="key-text-code" x="27" y="45">&amp;kp V</text>
  </g>
  <g transform="translate(350, 230)">
    <rect class="key" x="0" y="0" width="55" height="55"/>
    <text class="key-text" x="27" y="25">B</text>
    <text class="key-text-code" x="27" y="45">&amp;kp B</text>
  </g>

  <!-- RIGHT HALF - Row 4 -->
  <g transform="translate(630, 230)">
    <rect class="key" x="0" y="0" width="55" height="55"/>
    <text class="key-text" x="27" y="25">N</text>
    <text class="key-text-code" x="27" y="45">&amp;kp N</text>
  </g>
  <g transform="translate(690, 230)">
    <rect class="key" x="0" y="0" width="55" height="55"/>
    <text class="key-text" x="27" y="25">M</text>
    <text class="key-text-code" x="27" y="45">&amp;kp M</text>
  </g>
  <g transform="translate(750, 230)">
    <rect class="key" x="0" y="0" width="55" height="55"/>
    <text class="key-text" x="27" y="20">,</text>
    <text class="key-text-small" x="27" y="35">&lt;</text>
    <text class="key-text-code" x="27" y="48">&amp;kp COMMA</text>
  </g>
  <g transform="translate(810, 230)">
    <rect class="key" x="0" y="0" width="55" height="55"/>
    <text class="key-text" x="27" y="20">[</text>
    <text class="key-text-small" x="27" y="35">{</text>
    <text class="key-text-code" x="27" y="48">&amp;kp LBKT</text>
  </g>
  <g transform="translate(870, 230)">
    <rect class="key" x="0" y="0" width="55" height="55"/>
    <text class="key-text" x="27" y="20">/</text>
    <text class="key-text-small" x="27" y="35">?</text>
    <text class="key-text-code" x="27" y="48">&amp;kp FSLH</text>
  </g>
  <g transform="translate(930, 230)">
    <rect class="key" x="0" y="0" width="55" height="55"/>
    <text class="key-text" x="27" y="20">-</text>
    <text class="key-text-small" x="27" y="35">_</text>
    <text class="key-text-code" x="27" y="48">&amp;kp MINUS</text>
  </g>

  <!-- LEFT THUMB CLUSTER -->
  <g transform="translate(230, 320)">
    <rect class="key thumb" x="0" y="0" width="55" height="55"/>
    <text class="key-text" x="27" y="25">ALT</text>
    <text class="key-text-code" x="27" y="45">&amp;kp LALT</text>
  </g>
  <g transform="translate(290, 320)">
    <rect class="key thumb" x="0" y="0" width="55" height="55"/>
    <text class="key-text" x="27" y="25">SPACE</text>
    <text class="key-text-code" x="27" y="45">&amp;kp SPC</text>
  </g>
  <g transform="translate(350, 320)">
    <rect class="key" x="0" y="0" width="55" height="55" style="fill: #c8e6c9;"/>
    <text class="key-text" x="27" y="20">TO(1)</text>
    <text class="key-text-small" x="27" y="35">Layer 1</text>
    <text class="key-text-code" x="27" y="48">&amp;to 1</text>
  </g>
  <g transform="translate(290, 380)">
    <rect class="key thumb" x="0" y="0" width="55" height="55"/>
    <text class="key-text" x="27" y="20">MB1</text>
    <text class="key-text-small" x="27" y="35">L-Click</text>
    <text class="key-text-code" x="27" y="48">&amp;mkp MB1</text>
  </g>
  <g transform="translate(350, 380)">
    <rect class="key thumb" x="0" y="0" width="55" height="55"/>
    <text class="key-text" x="27" y="20">MB2</text>
    <text class="key-text-small" x="27" y="35">R-Click</text>
    <text class="key-text-code" x="27" y="48">&amp;mkp MB2</text>
  </g>

  <!-- RIGHT THUMB CLUSTER -->
  <g transform="translate(690, 320)">
    <rect class="key thumb" x="0" y="0" width="55" height="55"/>
    <text class="key-text" x="27" y="25">WIN</text>
    <text class="key-text-code" x="27" y="45">&amp;kp LWIN</text>
  </g>
  <g transform="translate(750, 320)">
    <rect class="key thumb" x="0" y="0" width="55" height="55"/>
    <text class="key-text" x="27" y="25">ENTER</text>
    <text class="key-text-code" x="27" y="45">&amp;kp RET</text>
  </g>
  <g transform="translate(690, 380)">
    <rect class="key thumb" x="0" y="0" width="55" height="55"/>
    <text class="key-text" x="27" y="25">SPACE</text>
    <text class="key-text-code" x="27" y="45">&amp;kp SPC</text>
  </g>

  <!-- Trackball -->
  <circle cx="850" cy="400" r="25" fill="#e1bee7" stroke="#333" stroke-width="2"/>
  <text class="key-text-small" x="850" y="405" text-anchor="middle">Trackball</text>
</svg>
